 <svg
        width="166"
        height="166"
        viewBox="0 0 166 166"
        fill="none"
        xmlns="http://www.w3.org/2000/svg"
      >
        <path
          d="M118.115 76.6154C118.115 83.5605 116.056 90.3497 112.197 96.1244C108.339 101.899 102.855 106.4 96.4381 109.058C90.0216 111.716 82.9611 112.411 76.1493 111.056C69.3376 109.701 63.0807 106.357 58.1697 101.446C53.2587 96.5347 49.9143 90.2777 48.5594 83.466C47.2044 76.6543 47.8998 69.5938 50.5576 63.1773C53.2154 56.7608 57.7163 51.2765 63.491 47.418C69.2657 43.5595 76.0549 41.5 83 41.5C92.31 41.5106 101.236 45.2136 107.819 51.7967C114.402 58.3798 118.105 67.3054 118.115 76.6154ZM166 83C166 99.4158 161.132 115.463 152.012 129.112C142.892 142.762 129.929 153.4 114.763 159.682C99.5965 165.964 82.9079 167.608 66.8075 164.405C50.7071 161.203 35.9179 153.298 24.3102 141.69C12.7024 130.082 4.79743 115.293 1.59486 99.1925C-1.60771 83.0921 0.0359626 66.4035 6.31803 51.2373C12.6001 36.071 23.2384 23.1082 36.8877 13.988C50.537 4.86786 66.5842 0 83 0C105.006 0.0232386 126.104 8.77532 141.664 24.3358C157.225 39.8963 165.977 60.9942 166 83ZM153.231 83C153.221 73.547 151.304 64.1932 147.596 55.4979C143.888 46.8026 138.464 38.9445 131.649 32.3934C124.834 25.8423 116.768 20.7329 107.934 17.3706C99.0988 14.0084 89.6767 12.4624 80.2307 12.8251C42.6413 14.2776 12.6655 45.5861 12.7693 83.1995C12.8053 100.322 19.1205 116.837 30.5185 129.616C35.1603 122.883 41.0566 117.109 47.8846 112.609C48.4668 112.224 49.1589 112.041 49.855 112.087C50.5512 112.133 51.213 112.406 51.7394 112.864C60.4159 120.369 71.5042 124.499 82.9761 124.499C94.4479 124.499 105.536 120.369 114.213 112.864C114.739 112.406 115.401 112.133 116.097 112.087C116.793 112.041 117.485 112.224 118.068 112.609C124.904 117.106 130.809 122.881 135.458 129.616C146.912 116.791 153.239 100.195 153.231 83Z"
          fill="#5D8B2F"
        />
      </svg>